<svg width="252" height="253" viewBox="0 0 252 253" fill="none" xmlns="http://www.w3.org/2000/svg">
<path d="M224.013 84.9545L168.024 29.0549H140.023V57.0193H112.021C101.048 92.2255 86.5374 117.921 56.1053 140.84V140.941V196.928H84.005C87.6865 196.932 91.3325 196.21 94.7342 194.804C98.136 193.397 101.227 191.334 103.829 188.733C106.432 186.131 108.495 183.042 109.901 179.642C111.306 176.242 112.027 172.599 112.021 168.92H168.024L140.023 196.928L84.005 252.842H224.013C231.437 252.838 238.556 249.889 243.804 244.642C249.052 239.396 252 232.281 252 224.863V112.977L224.013 84.9545Z" fill="#5EEAD4"/>
<path d="M28.0525 0.843506H56.1049V29.055H28.0525V57.2664H0V29.055C0 13.4741 12.5596 0.843506 28.0525 0.843506Z" fill="white"/>
<path d="M252 29.0551L252 57.2669L223.948 57.2669L223.948 29.0551L195.895 29.0551L195.895 0.843259L223.948 0.84326C239.44 0.843261 252 13.4742 252 29.0551Z" fill="white"/>
<path d="M3.34212e-07 224.631L6.68423e-07 196.42L28.0521 196.42L28.0521 224.631L56.1042 224.631L56.1042 252.843L28.0521 252.843C12.5593 252.843 1.49633e-07 240.212 3.34212e-07 224.631Z" fill="white"/>
</svg>
