<svg width="507" height="508" viewBox="0 0 507 508" fill="none" xmlns="http://www.w3.org/2000/svg">
<path d="M350.84 211.742L295.253 155.451H267.453V183.611H239.652C228.757 219.064 214.351 244.939 184.138 268.018V268.121V324.499H211.837C215.492 324.503 219.112 323.776 222.489 322.36C225.867 320.944 228.935 318.866 231.519 316.246C234.103 313.626 236.151 310.516 237.547 307.092C238.942 303.669 239.658 300 239.652 296.295H295.253L267.453 324.499L211.837 380.805H350.84C358.21 380.801 365.278 377.831 370.488 372.548C375.699 367.264 378.626 360.1 378.626 352.63V239.96L350.84 211.742Z" fill="white"/>
<path d="M156.286 127.043H184.137V155.451H156.286V183.86H128.435V155.451C128.435 139.762 140.905 127.043 156.286 127.043Z" fill="white"/>
<path d="M378.625 155.451L378.625 183.86L350.775 183.86L350.775 155.451L322.924 155.451L322.924 127.042L350.775 127.042C366.156 127.042 378.625 139.761 378.625 155.451Z" fill="white"/>
<path d="M128.435 352.397L128.435 323.987L156.286 323.987L156.286 352.397L184.137 352.397L184.137 380.806L156.286 380.806C140.904 380.806 128.435 368.087 128.435 352.397Z" fill="white"/>
</svg>
