<svg width="507" height="508" viewBox="0 0 507 508" fill="none" xmlns="http://www.w3.org/2000/svg">
<path d="M350.84 211.971L295.253 155.68H267.453V183.84H239.652C228.757 219.293 214.351 245.168 184.138 268.247V268.349V324.728H211.837C215.492 324.732 219.112 324.005 222.489 322.589C225.867 321.173 228.935 319.095 231.519 316.475C234.103 313.855 236.151 310.744 237.547 307.321C238.942 303.897 239.658 300.228 239.652 296.524H295.253L267.453 324.728L211.837 381.034H350.84C358.21 381.03 365.278 378.06 370.488 372.777C375.699 367.493 378.626 360.329 378.626 352.859V240.189L350.84 211.971Z" fill="#5EEAD4"/>
<path d="M156.286 127.271H184.137V155.68H156.286V184.089H128.435V155.68C128.435 139.991 140.905 127.271 156.286 127.271Z" fill="white"/>
<path d="M378.625 155.68L378.625 184.089L350.775 184.089L350.775 155.68L322.924 155.68L322.924 127.271L350.775 127.271C366.156 127.271 378.625 139.99 378.625 155.68Z" fill="white"/>
<path d="M128.435 352.626L128.435 324.216L156.286 324.216L156.286 352.626L184.137 352.626L184.137 381.035L156.286 381.035C140.904 381.035 128.435 368.316 128.435 352.626Z" fill="white"/>
</svg>
