<svg width="1080" height="253" viewBox="0 0 1080 253" fill="none" xmlns="http://www.w3.org/2000/svg">
<path d="M223.779 84.9147L167.927 29.1514H139.993V57.0475H112.06C101.113 92.1679 86.6382 117.801 56.2803 140.663V140.765V196.615H84.112C87.7845 196.619 91.4216 195.899 94.8151 194.496C98.2085 193.093 101.292 191.035 103.888 188.44C106.484 185.844 108.542 182.763 109.944 179.371C111.347 175.98 112.066 172.345 112.06 168.676H167.927L139.993 196.615L84.112 252.393H223.779C231.185 252.389 238.286 249.447 243.521 244.213C248.757 238.979 251.698 231.882 251.698 224.482V112.869L223.779 84.9147Z" fill="#5EEAD4"/>
<path d="M28.2958 1.00879H56.2799V29.1515H28.2958V57.2941H0.311768V29.1515C0.311768 13.6086 12.8408 1.00879 28.2958 1.00879Z" fill="white"/>
<path d="M251.697 29.1516L251.697 57.2946L223.713 57.2946L223.713 29.1516L195.73 29.1516L195.73 1.00854L223.713 1.00854C239.168 1.00854 251.697 13.6087 251.697 29.1516Z" fill="white"/>
<path d="M0.311768 224.251L0.311768 196.108L28.2955 196.108L28.2955 224.251L56.2792 224.251L56.2792 252.394L28.2955 252.394C12.8404 252.394 0.311768 239.794 0.311768 224.251Z" fill="white"/>
<path d="M433.355 129.203C433.355 113.932 443.978 107.072 454.38 107.072C464.782 107.072 475.405 113.932 475.405 129.203V195.819H504.618V128.096C504.618 94.6779 483.372 78.5219 454.38 78.5219C438.667 78.5219 426.937 83.6122 418.748 93.5714C410.781 82.9482 399.937 78.5219 387.986 78.5219C378.026 78.5219 367.625 83.3909 362.092 91.1369V81.6204H332.878V195.819H362.092V129.203C362.092 113.932 372.715 107.072 383.117 107.072C393.518 107.072 404.142 113.932 404.142 129.203V195.819H433.355V129.203Z" fill="white"/>
<path d="M589.531 121.678C572.268 123.006 549.473 124.777 538.186 130.088C522.251 137.613 516.497 147.572 516.497 164.171C516.497 185.196 531.989 198.032 558.104 198.032C575.588 198.032 584.662 191.392 589.973 182.761V195.819H619.187V130.974C619.187 99.3255 601.039 78.5219 568.284 78.5219C540.399 78.5219 523.358 93.5714 518.71 117.473H548.145C551.022 109.727 558.104 104.858 568.284 104.858C580.235 104.858 587.539 111.277 589.531 121.457V121.678ZM551.907 151.113C557.44 148.236 573.375 146.908 589.973 145.802V149.564C589.973 163.949 578.022 172.359 562.973 172.359C549.915 172.359 545.71 166.384 545.71 160.851C545.71 155.982 547.038 153.548 551.907 151.113Z" fill="white"/>
<path d="M664.472 40.8984H635.258V195.819H664.472V159.966L675.316 148.015L708.071 195.819H742.374L695.013 126.547L736.399 81.6204H700.989L664.472 121.457V40.8984Z" fill="white"/>
<path d="M847.513 128.096C847.513 94.4566 824.939 78.5219 801.701 78.5219C791.52 78.5219 780.012 83.8335 774.921 91.5795V40.8984H745.708V195.819H774.921V129.203C774.921 113.711 785.545 107.072 796.61 107.072C807.676 107.072 818.299 113.711 818.299 129.203V195.819H847.513V128.096Z" fill="white"/>
<path d="M965.527 128.096C965.527 94.4566 942.953 78.5219 919.715 78.5219C909.534 78.5219 898.026 83.8335 892.936 91.5795V81.6204H863.722V195.819H892.936V129.203C892.936 113.711 903.559 107.072 914.625 107.072C925.69 107.072 936.314 113.711 936.314 129.203V195.819H965.527V128.096Z" fill="white"/>
<path d="M978.196 145.58C978.196 177.228 996.343 198.032 1029.1 198.032C1061.85 198.032 1080 177.228 1080 145.58V130.974C1080 99.3255 1061.85 78.5219 1029.1 78.5219C996.343 78.5219 978.196 99.3255 978.196 130.974V145.58ZM1050.79 149.343C1050.79 162.843 1043.04 171.695 1029.1 171.695C1015.16 171.695 1007.41 162.843 1007.41 149.343V127.211C1007.41 113.711 1015.16 104.858 1029.1 104.858C1043.04 104.858 1050.79 113.711 1050.79 127.211V149.343Z" fill="white"/>
</svg>
