<svg width="1080" height="254" viewBox="0 0 1080 254" fill="none" xmlns="http://www.w3.org/2000/svg">
<path d="M223.779 85.131L167.927 29.3677H139.993V57.2638H112.06C101.113 92.3843 86.6382 118.017 56.2803 140.88V140.981V196.832H84.112C87.7845 196.835 91.4216 196.115 94.8151 194.712C98.2085 193.309 101.292 191.251 103.888 188.656C106.484 186.061 108.542 182.979 109.944 179.587C111.347 176.196 112.066 172.561 112.06 168.892H167.927L139.993 196.832L84.112 252.609H223.779C231.185 252.606 238.286 249.663 243.521 244.429C248.757 239.196 251.698 232.099 251.698 224.699V113.085L223.779 85.131Z" fill="white"/>
<path d="M28.2958 1.2251H56.2799V29.3678H28.2958V57.5104H0.311768V29.3678C0.311768 13.8249 12.8408 1.2251 28.2958 1.2251Z" fill="white"/>
<path d="M251.697 29.3679L251.697 57.5109L223.713 57.5109L223.713 29.3679L195.73 29.3679L195.73 1.22485L223.713 1.22485C239.168 1.22485 251.697 13.825 251.697 29.3679Z" fill="white"/>
<path d="M0.311768 224.467L0.311768 196.324L28.2955 196.324L28.2955 224.467L56.2792 224.467L56.2792 252.61L28.2955 252.61C12.8404 252.61 0.311768 240.01 0.311768 224.467Z" fill="white"/>
<path d="M433.355 129.371C433.355 114.101 443.978 107.24 454.38 107.24C464.782 107.24 475.405 114.101 475.405 129.371V195.987H504.618V128.265C504.618 94.8464 483.372 78.6904 454.38 78.6904C438.667 78.6904 426.937 83.7806 418.748 93.7398C410.781 83.1167 399.937 78.6904 387.986 78.6904C378.026 78.6904 367.625 83.5593 362.092 91.3053V81.7888H332.878V195.987H362.092V129.371C362.092 114.101 372.715 107.24 383.117 107.24C393.518 107.24 404.142 114.101 404.142 129.371V195.987H433.355V129.371Z" fill="white"/>
<path d="M589.531 121.847C572.268 123.175 549.473 124.945 538.186 130.257C522.251 137.781 516.497 147.741 516.497 164.339C516.497 185.364 531.989 198.2 558.104 198.2C575.588 198.2 584.662 191.561 589.973 182.93V195.987H619.187V131.142C619.187 99.494 601.039 78.6904 568.284 78.6904C540.399 78.6904 523.358 93.7398 518.71 117.642H548.145C551.022 109.896 558.104 105.027 568.284 105.027C580.235 105.027 587.539 111.445 589.531 121.625V121.847ZM551.907 151.282C557.44 148.405 573.375 147.077 589.973 145.97V149.732C589.973 164.118 578.022 172.528 562.973 172.528C549.915 172.528 545.71 166.552 545.71 161.019C545.71 156.151 547.038 153.716 551.907 151.282Z" fill="white"/>
<path d="M664.472 41.0669H635.258V195.987H664.472V160.134L675.316 148.183L708.071 195.987H742.374L695.013 126.716L736.399 81.7888H700.989L664.472 121.625V41.0669Z" fill="white"/>
<path d="M847.513 128.265C847.513 94.6251 824.939 78.6904 801.701 78.6904C791.52 78.6904 780.012 84.002 774.921 91.748V41.0669H745.708V195.987H774.921V129.371C774.921 113.879 785.545 107.24 796.61 107.24C807.676 107.24 818.299 113.879 818.299 129.371V195.987H847.513V128.265Z" fill="white"/>
<path d="M965.527 128.265C965.527 94.6251 942.953 78.6904 919.715 78.6904C909.534 78.6904 898.026 84.002 892.936 91.748V81.7888H863.722V195.987H892.936V129.371C892.936 113.879 903.559 107.24 914.625 107.24C925.69 107.24 936.314 113.879 936.314 129.371V195.987H965.527V128.265Z" fill="white"/>
<path d="M978.196 145.749C978.196 177.397 996.343 198.2 1029.1 198.2C1061.85 198.2 1080 177.397 1080 145.749V131.142C1080 99.494 1061.85 78.6904 1029.1 78.6904C996.343 78.6904 978.196 99.494 978.196 131.142V145.749ZM1050.79 149.511C1050.79 163.011 1043.04 171.864 1029.1 171.864C1015.16 171.864 1007.41 163.011 1007.41 149.511V127.38C1007.41 113.879 1015.16 105.027 1029.1 105.027C1043.04 105.027 1050.79 113.879 1050.79 127.38V149.511Z" fill="white"/>
</svg>
