<svg width="252" height="253" viewBox="0 0 252 253" fill="none" xmlns="http://www.w3.org/2000/svg">
<path d="M224.013 84.87L168.024 28.9705H140.023V56.9348H112.021C101.048 92.1411 86.5374 117.837 56.1053 140.755V140.857V196.844H84.005C87.6865 196.848 91.3325 196.126 94.7342 194.719C98.136 193.313 101.227 191.25 103.829 188.648C106.432 186.046 108.495 182.957 109.901 179.557C111.306 176.158 112.027 172.514 112.021 168.836H168.024L140.023 196.844L84.005 252.758H224.013C231.437 252.754 238.556 249.805 243.804 244.558C249.052 239.311 252 232.197 252 224.779V112.893L224.013 84.87Z" fill="#14B8A6"/>
<path d="M28.0525 0.759033H56.1049V28.9705H28.0525V57.1819H0V28.9705C0 13.3896 12.5596 0.759033 28.0525 0.759033Z" fill="#111827"/>
<path d="M252 28.9706L252 57.1824L223.948 57.1824L223.948 28.9706L195.895 28.9706L195.895 0.758787L223.948 0.758788C239.44 0.758789 252 13.3898 252 28.9706Z" fill="#111827"/>
<path d="M3.34212e-07 224.547L6.68423e-07 196.335L28.0521 196.335L28.0521 224.547L56.1042 224.547L56.1042 252.759L28.0521 252.759C12.5593 252.759 1.49633e-07 240.128 3.34212e-07 224.547Z" fill="#111827"/>
</svg>
