<svg width="1336" height="506" viewBox="0 0 1336 506" fill="none" xmlns="http://www.w3.org/2000/svg">
<path d="M351.29 211.053L295.354 155.41H267.379V183.246H239.404C228.441 218.29 213.944 243.868 183.541 266.681V266.782V322.512H211.414C215.092 322.516 218.735 321.797 222.133 320.397C225.532 318.997 228.62 316.944 231.22 314.354C233.82 311.764 235.881 308.689 237.285 305.305C238.69 301.921 239.41 298.294 239.404 294.633H295.354L267.379 322.512L211.414 378.169H351.29C358.707 378.165 365.819 375.229 371.062 370.007C376.305 364.784 379.251 357.703 379.251 350.319V238.946L351.29 211.053Z" fill="white"/>
<path d="M155.515 127.329H183.541V155.411H155.515V183.493H127.489V155.411C127.489 139.902 140.036 127.329 155.515 127.329Z" fill="white"/>
<path d="M379.25 155.41L379.25 183.492L351.225 183.492L351.225 155.41L323.199 155.41L323.199 127.328L351.225 127.328C366.703 127.328 379.25 139.901 379.25 155.41Z" fill="white"/>
<path d="M127.489 350.088L127.489 322.006L155.514 322.006L155.514 350.088L183.54 350.088L183.54 378.17L155.514 378.17C140.036 378.17 127.489 365.597 127.489 350.088Z" fill="white"/>
<path d="M561.18 255.197C561.18 239.96 571.819 233.114 582.237 233.114C592.654 233.114 603.293 239.96 603.293 255.197V321.669H632.55V254.093C632.55 220.747 611.272 204.626 582.237 204.626C566.5 204.626 554.752 209.705 546.552 219.643C538.572 209.043 527.712 204.626 515.743 204.626C505.769 204.626 495.351 209.484 489.81 217.214V207.718H460.553V321.669H489.81V255.197C489.81 239.96 500.449 233.114 510.867 233.114C521.284 233.114 531.923 239.96 531.923 255.197V321.669H561.18V255.197Z" fill="white"/>
<path d="M717.59 247.689C700.301 249.014 677.472 250.781 666.168 256.081C650.209 263.589 644.446 273.527 644.446 290.089C644.446 311.069 659.962 323.877 686.116 323.877C703.626 323.877 712.713 317.252 718.033 308.64V321.669H747.29V256.964C747.29 225.384 729.115 204.626 696.312 204.626C668.384 204.626 651.317 219.643 646.663 243.493H676.142C679.023 235.764 686.116 230.905 696.312 230.905C708.281 230.905 715.595 237.31 717.59 247.468V247.689ZM679.91 277.06C685.451 274.189 701.409 272.864 718.033 271.76V275.514C718.033 289.869 706.064 298.26 690.992 298.26C677.915 298.26 673.704 292.298 673.704 286.777C673.704 281.918 675.034 279.489 679.91 277.06Z" fill="white"/>
<path d="M792.643 167.084H763.386V321.669H792.643V285.894L803.504 273.968L836.307 321.669H870.662L823.23 252.547L864.678 207.718H829.214L792.643 247.468V167.084Z" fill="white"/>
<path d="M975.958 254.093C975.958 220.526 953.35 204.626 930.077 204.626C919.882 204.626 908.356 209.926 903.258 217.655V167.084H874.001V321.669H903.258V255.197C903.258 239.739 913.897 233.114 924.979 233.114C936.062 233.114 946.701 239.739 946.701 255.197V321.669H975.958V254.093Z" fill="white"/>
<path d="M1094.15 254.093C1094.15 220.526 1071.54 204.626 1048.27 204.626C1038.07 204.626 1026.55 209.926 1021.45 217.655V207.718H992.192V321.669H1021.45V255.197C1021.45 239.739 1032.09 233.114 1043.17 233.114C1054.25 233.114 1064.89 239.739 1064.89 255.197V321.669H1094.15V254.093Z" fill="white"/>
<path d="M1106.84 271.539C1106.84 303.119 1125.01 323.877 1157.82 323.877C1190.62 323.877 1208.79 303.119 1208.79 271.539V256.964C1208.79 225.384 1190.62 204.626 1157.82 204.626C1125.01 204.626 1106.84 225.384 1106.84 256.964V271.539ZM1179.54 275.293C1179.54 288.764 1171.78 297.598 1157.82 297.598C1143.85 297.598 1136.09 288.764 1136.09 275.293V253.21C1136.09 239.739 1143.85 230.905 1157.82 230.905C1171.78 230.905 1179.54 239.739 1179.54 253.21V275.293Z" fill="white"/>
</svg>
