<svg width="1080" height="254" viewBox="0 0 1080 254" fill="none" xmlns="http://www.w3.org/2000/svg">
<path d="M223.779 85.7452L167.927 29.9819H139.993V57.8781H112.06C101.113 92.9985 86.6382 118.632 56.2803 141.494V141.596V197.446H84.112C87.7845 197.45 91.4216 196.73 94.8151 195.327C98.2085 193.924 101.292 191.866 103.888 189.27C106.484 186.675 108.542 183.593 109.944 180.202C111.347 176.81 112.066 173.176 112.06 169.506H167.927L139.993 197.446L84.112 253.224H223.779C231.185 253.22 238.286 250.278 243.521 245.044C248.757 239.81 251.698 232.713 251.698 225.313V113.699L223.779 85.7452Z" fill="#111827"/>
<path d="M28.2958 1.83936H56.2799V29.982H28.2958V58.1247H0.311768V29.982C0.311768 14.4392 12.8408 1.83936 28.2958 1.83936Z" fill="#111827"/>
<path d="M251.697 29.9821L251.697 58.1252L223.713 58.1252L223.713 29.9821L195.73 29.9821L195.73 1.83911L223.713 1.83911C239.168 1.83911 251.697 14.4393 251.697 29.9821Z" fill="#111827"/>
<path d="M0.311768 225.082L0.311768 196.939L28.2955 196.939L28.2955 225.082L56.2792 225.082L56.2792 253.225L28.2955 253.225C12.8404 253.225 0.311768 240.624 0.311768 225.082Z" fill="#111827"/>
<path d="M433.355 129.287C433.355 114.017 443.978 107.156 454.38 107.156C464.782 107.156 475.405 114.017 475.405 129.287V195.903H504.618V128.181C504.618 94.7622 483.372 78.6062 454.38 78.6062C438.667 78.6062 426.937 83.6964 418.748 93.6556C410.781 83.0325 399.937 78.6062 387.986 78.6062C378.026 78.6062 367.625 83.4751 362.092 91.2211V81.7046H332.878V195.903H362.092V129.287C362.092 114.017 372.715 107.156 383.117 107.156C393.518 107.156 404.142 114.017 404.142 129.287V195.903H433.355V129.287Z" fill="#111827"/>
<path d="M589.531 121.763C572.268 123.09 549.473 124.861 538.186 130.173C522.251 137.697 516.497 147.656 516.497 164.255C516.497 185.28 531.989 198.116 558.104 198.116C575.588 198.116 584.662 191.477 589.973 182.845V195.903H619.187V131.058C619.187 99.4098 601.039 78.6062 568.284 78.6062C540.399 78.6062 523.358 93.6556 518.71 117.558H548.145C551.022 109.812 558.104 104.943 568.284 104.943C580.235 104.943 587.539 111.361 589.531 121.541V121.763ZM551.907 151.197C557.44 148.32 573.375 146.992 589.973 145.886V149.648C589.973 164.034 578.022 172.444 562.973 172.444C549.915 172.444 545.71 166.468 545.71 160.935C545.71 156.066 547.038 153.632 551.907 151.197Z" fill="#111827"/>
<path d="M664.472 40.9827H635.258V195.903H664.472V160.05L675.316 148.099L708.071 195.903H742.374L695.013 126.631L736.399 81.7046H700.989L664.472 121.541V40.9827Z" fill="#111827"/>
<path d="M847.513 128.181C847.513 94.5408 824.939 78.6062 801.701 78.6062C791.52 78.6062 780.012 83.9177 774.921 91.6637V40.9827H745.708V195.903H774.921V129.287C774.921 113.795 785.545 107.156 796.61 107.156C807.676 107.156 818.299 113.795 818.299 129.287V195.903H847.513V128.181Z" fill="#111827"/>
<path d="M965.527 128.181C965.527 94.5408 942.953 78.6062 919.715 78.6062C909.534 78.6062 898.026 83.9177 892.936 91.6637V81.7046H863.722V195.903H892.936V129.287C892.936 113.795 903.559 107.156 914.625 107.156C925.69 107.156 936.314 113.795 936.314 129.287V195.903H965.527V128.181Z" fill="#111827"/>
<path d="M978.196 145.665C978.196 177.313 996.343 198.116 1029.1 198.116C1061.85 198.116 1080 177.313 1080 145.665V131.058C1080 99.4098 1061.85 78.6062 1029.1 78.6062C996.343 78.6062 978.196 99.4098 978.196 131.058V145.665ZM1050.79 149.427C1050.79 162.927 1043.04 171.78 1029.1 171.78C1015.16 171.78 1007.41 162.927 1007.41 149.427V127.295C1007.41 113.795 1015.16 104.943 1029.1 104.943C1043.04 104.943 1050.79 113.795 1050.79 127.295V149.427Z" fill="#111827"/>
</svg>
