<svg width="1336" height="507" viewBox="0 0 1336 507" fill="none" xmlns="http://www.w3.org/2000/svg">
<path d="M351.29 212.364L295.354 156.721H267.379V184.557H239.404C228.441 219.602 213.944 245.179 183.541 267.992V268.094V323.823H211.414C215.092 323.827 218.735 323.108 222.133 321.708C225.532 320.309 228.62 318.255 231.22 315.665C233.82 313.075 235.881 310 237.285 306.616C238.69 303.232 239.41 299.605 239.404 295.944H295.354L267.379 323.823L211.414 379.48H351.29C358.707 379.476 365.819 376.541 371.062 371.318C376.305 366.095 379.251 359.014 379.251 351.63V240.258L351.29 212.364Z" fill="#111827"/>
<path d="M155.515 128.64H183.541V156.722H155.515V184.804H127.489V156.722C127.489 141.213 140.036 128.64 155.515 128.64Z" fill="#111827"/>
<path d="M379.25 156.722L379.25 184.804L351.225 184.804L351.225 156.722L323.199 156.722L323.199 128.64L351.225 128.64C366.703 128.64 379.25 141.212 379.25 156.722Z" fill="#111827"/>
<path d="M127.489 351.399L127.489 323.317L155.514 323.317L155.514 351.399L183.54 351.399L183.54 379.481L155.514 379.481C140.036 379.481 127.489 366.908 127.489 351.399Z" fill="#111827"/>
<path d="M561.18 255.812C561.18 240.574 571.819 233.728 582.237 233.728C592.654 233.728 603.293 240.574 603.293 255.812V322.283H632.55V254.708C632.55 221.361 611.272 205.24 582.237 205.24C566.5 205.24 554.752 210.32 546.552 220.257C538.572 209.657 527.712 205.24 515.743 205.24C505.769 205.24 495.351 210.099 489.81 217.828V208.332H460.553V322.283H489.81V255.812C489.81 240.574 500.449 233.728 510.867 233.728C521.284 233.728 531.923 240.574 531.923 255.812V322.283H561.18V255.812Z" fill="#111827"/>
<path d="M717.59 248.303C700.301 249.628 677.472 251.395 666.168 256.695C650.209 264.204 644.446 274.141 644.446 290.704C644.446 311.683 659.962 324.492 686.116 324.492C703.626 324.492 712.713 317.867 718.033 309.254V322.283H747.29V257.578C747.29 225.999 729.115 205.24 696.312 205.24C668.384 205.24 651.317 220.257 646.663 244.108H676.142C679.023 236.378 686.116 231.52 696.312 231.52C708.281 231.52 715.595 237.924 717.59 248.083V248.303ZM679.91 277.675C685.451 274.804 701.409 273.479 718.033 272.375V276.129C718.033 290.483 706.064 298.875 690.992 298.875C677.915 298.875 673.704 292.912 673.704 287.391C673.704 282.533 675.034 280.104 679.91 277.675Z" fill="#111827"/>
<path d="M792.643 167.698H763.386V322.283H792.643V286.508L803.504 274.583L836.307 322.283H870.662L823.23 253.162L864.678 208.332H829.214L792.643 248.083V167.698Z" fill="#111827"/>
<path d="M975.958 254.708C975.958 221.141 953.35 205.24 930.077 205.24C919.882 205.24 908.356 210.54 903.258 218.27V167.698H874.001V322.283H903.258V255.812C903.258 240.353 913.897 233.728 924.979 233.728C936.062 233.728 946.701 240.353 946.701 255.812V322.283H975.958V254.708Z" fill="#111827"/>
<path d="M1094.15 254.708C1094.15 221.141 1071.54 205.24 1048.27 205.24C1038.07 205.24 1026.55 210.54 1021.45 218.27V208.332H992.192V322.283H1021.45V255.812C1021.45 240.353 1032.09 233.728 1043.17 233.728C1054.25 233.728 1064.89 240.353 1064.89 255.812V322.283H1094.15V254.708Z" fill="#111827"/>
<path d="M1106.84 272.154C1106.84 303.733 1125.01 324.492 1157.82 324.492C1190.62 324.492 1208.79 303.733 1208.79 272.154V257.578C1208.79 225.999 1190.62 205.24 1157.82 205.24C1125.01 205.24 1106.84 225.999 1106.84 257.578V272.154ZM1179.54 275.908C1179.54 289.379 1171.78 298.212 1157.82 298.212C1143.85 298.212 1136.09 289.379 1136.09 275.908V253.824C1136.09 240.353 1143.85 231.52 1157.82 231.52C1171.78 231.52 1179.54 240.353 1179.54 253.824V275.908Z" fill="#111827"/>
</svg>
