<svg width="1336" height="506" viewBox="0 0 1336 506" fill="none" xmlns="http://www.w3.org/2000/svg">
<path d="M351.29 211.545L295.354 155.902H267.379V183.738H239.404C228.441 218.783 213.944 244.36 183.541 267.173V267.275V323.004H211.414C215.092 323.008 218.735 322.289 222.133 320.889C225.532 319.489 228.62 317.436 231.22 314.846C233.82 312.256 235.881 309.181 237.285 305.797C238.69 302.413 239.41 298.786 239.404 295.125H295.354L267.379 323.004L211.414 378.661H351.29C358.707 378.657 365.819 375.721 371.062 370.499C376.305 365.276 379.251 358.195 379.251 350.811V239.439L351.29 211.545Z" fill="#14B8A6"/>
<path d="M155.515 127.821H183.541V155.903H155.515V183.985H127.489V155.903C127.489 140.394 140.036 127.821 155.515 127.821Z" fill="#111827"/>
<path d="M379.25 155.903L379.25 183.985L351.225 183.985L351.225 155.903L323.199 155.903L323.199 127.821L351.225 127.821C366.703 127.821 379.25 140.393 379.25 155.903Z" fill="#111827"/>
<path d="M127.489 350.58L127.489 322.498L155.514 322.498L155.514 350.58L183.54 350.58L183.54 378.662L155.514 378.662C140.036 378.662 127.489 366.09 127.489 350.58Z" fill="#111827"/>
<path d="M561.18 255.041C561.18 239.803 571.819 232.957 582.237 232.957C592.654 232.957 603.293 239.803 603.293 255.041V321.512H632.55V253.937C632.55 220.59 611.272 204.469 582.237 204.469C566.5 204.469 554.752 209.549 546.552 219.486C538.572 208.886 527.712 204.469 515.743 204.469C505.769 204.469 495.351 209.328 489.81 217.057V207.561H460.553V321.512H489.81V255.041C489.81 239.803 500.449 232.957 510.867 232.957C521.284 232.957 531.923 239.803 531.923 255.041V321.512H561.18V255.041Z" fill="#111827"/>
<path d="M717.59 247.532C700.301 248.857 677.472 250.624 666.168 255.924C650.209 263.433 644.446 273.37 644.446 289.933C644.446 310.912 659.962 323.721 686.116 323.721C703.626 323.721 712.713 317.096 718.033 308.483V321.512H747.29V256.807C747.29 225.228 729.115 204.469 696.312 204.469C668.384 204.469 651.317 219.486 646.663 243.337H676.142C679.023 235.607 686.116 230.749 696.312 230.749C708.281 230.749 715.595 237.153 717.59 247.312V247.532ZM679.91 276.904C685.451 274.033 701.409 272.708 718.033 271.604V275.358C718.033 289.712 706.064 298.104 690.992 298.104C677.915 298.104 673.704 292.141 673.704 286.62C673.704 281.762 675.034 279.333 679.91 276.904Z" fill="#111827"/>
<path d="M792.643 166.927H763.386V321.512H792.643V285.737L803.504 273.812L836.307 321.512H870.662L823.23 252.391L864.678 207.561H829.214L792.643 247.312V166.927Z" fill="#111827"/>
<path d="M975.958 253.937C975.958 220.37 953.35 204.469 930.077 204.469C919.882 204.469 908.356 209.769 903.258 217.499V166.927H874.001V321.512H903.258V255.041C903.258 239.582 913.897 232.957 924.979 232.957C936.062 232.957 946.701 239.582 946.701 255.041V321.512H975.958V253.937Z" fill="#111827"/>
<path d="M1094.15 253.937C1094.15 220.37 1071.54 204.469 1048.27 204.469C1038.07 204.469 1026.55 209.769 1021.45 217.499V207.561H992.192V321.512H1021.45V255.041C1021.45 239.582 1032.09 232.957 1043.17 232.957C1054.25 232.957 1064.89 239.582 1064.89 255.041V321.512H1094.15V253.937Z" fill="#111827"/>
<path d="M1106.84 271.383C1106.84 302.962 1125.01 323.721 1157.82 323.721C1190.62 323.721 1208.79 302.962 1208.79 271.383V256.807C1208.79 225.228 1190.62 204.469 1157.82 204.469C1125.01 204.469 1106.84 225.228 1106.84 256.807V271.383ZM1179.54 275.137C1179.54 288.608 1171.78 297.441 1157.82 297.441C1143.85 297.441 1136.09 288.608 1136.09 275.137V253.053C1136.09 239.582 1143.85 230.749 1157.82 230.749C1171.78 230.749 1179.54 239.582 1179.54 253.053V275.137Z" fill="#111827"/>
</svg>
