<svg width="1336" height="506" viewBox="0 0 1336 506" fill="none" xmlns="http://www.w3.org/2000/svg">
<path d="M351.29 211.234L295.354 155.591H267.379V183.427H239.404C228.441 218.471 213.944 244.049 183.541 266.862V266.963V322.693H211.414C215.092 322.696 218.735 321.978 222.133 320.578C225.532 319.178 228.62 317.124 231.22 314.535C233.82 311.945 235.881 308.87 237.285 305.486C238.69 302.102 239.41 298.475 239.404 294.813H295.354L267.379 322.693L211.414 378.35H351.29C358.707 378.346 365.819 375.41 371.062 370.187C376.305 364.965 379.251 357.883 379.251 350.499V239.127L351.29 211.234Z" fill="#5EEAD4"/>
<path d="M155.515 127.51H183.541V155.592H155.515V183.673H127.489V155.592C127.489 140.082 140.036 127.51 155.515 127.51Z" fill="white"/>
<path d="M379.25 155.591L379.25 183.673L351.225 183.673L351.225 155.591L323.199 155.591L323.199 127.509L351.225 127.509C366.703 127.509 379.25 140.082 379.25 155.591Z" fill="white"/>
<path d="M127.489 350.269L127.489 322.187L155.514 322.187L155.514 350.269L183.54 350.269L183.54 378.351L155.514 378.351C140.036 378.351 127.489 365.778 127.489 350.269Z" fill="white"/>
<path d="M561.18 255.426C561.18 240.189 571.819 233.343 582.237 233.343C592.654 233.343 603.293 240.189 603.293 255.426V321.898H632.55V254.322C632.55 220.976 611.272 204.855 582.237 204.855C566.5 204.855 554.752 209.934 546.552 219.872C538.572 209.272 527.712 204.855 515.743 204.855C505.769 204.855 495.351 209.713 489.81 217.443V207.947H460.553V321.898H489.81V255.426C489.81 240.189 500.449 233.343 510.867 233.343C521.284 233.343 531.923 240.189 531.923 255.426V321.898H561.18V255.426Z" fill="white"/>
<path d="M717.59 247.918C700.301 249.243 677.472 251.01 666.168 256.31C650.209 263.818 644.446 273.756 644.446 290.318C644.446 311.298 659.962 324.106 686.116 324.106C703.626 324.106 712.713 317.481 718.033 308.869V321.898H747.29V257.193C747.29 225.613 729.115 204.855 696.312 204.855C668.384 204.855 651.317 219.872 646.663 243.722H676.142C679.023 235.993 686.116 231.134 696.312 231.134C708.281 231.134 715.595 237.539 717.59 247.697V247.918ZM679.91 277.289C685.451 274.418 701.409 273.093 718.033 271.989V275.743C718.033 290.098 706.064 298.489 690.992 298.489C677.915 298.489 673.704 292.527 673.704 287.006C673.704 282.147 675.034 279.718 679.91 277.289Z" fill="white"/>
<path d="M792.643 167.313H763.386V321.898H792.643V286.123L803.504 274.197L836.307 321.898H870.662L823.23 252.776L864.678 207.947H829.214L792.643 247.697V167.313Z" fill="white"/>
<path d="M975.958 254.322C975.958 220.755 953.35 204.855 930.077 204.855C919.882 204.855 908.356 210.155 903.258 217.884V167.313H874.001V321.898H903.258V255.426C903.258 239.968 913.897 233.343 924.979 233.343C936.062 233.343 946.701 239.968 946.701 255.426V321.898H975.958V254.322Z" fill="white"/>
<path d="M1094.15 254.322C1094.15 220.755 1071.54 204.855 1048.27 204.855C1038.07 204.855 1026.55 210.155 1021.45 217.884V207.947H992.192V321.898H1021.45V255.426C1021.45 239.968 1032.09 233.343 1043.17 233.343C1054.25 233.343 1064.89 239.968 1064.89 255.426V321.898H1094.15V254.322Z" fill="white"/>
<path d="M1106.84 271.768C1106.84 303.348 1125.01 324.106 1157.82 324.106C1190.62 324.106 1208.79 303.348 1208.79 271.768V257.193C1208.79 225.613 1190.62 204.855 1157.82 204.855C1125.01 204.855 1106.84 225.613 1106.84 257.193V271.768ZM1179.54 275.522C1179.54 288.993 1171.78 297.827 1157.82 297.827C1143.85 297.827 1136.09 288.993 1136.09 275.522V253.439C1136.09 239.968 1143.85 231.134 1157.82 231.134C1171.78 231.134 1179.54 239.968 1179.54 253.439V275.522Z" fill="white"/>
</svg>
