<svg width="1080" height="254" viewBox="0 0 1080 254" fill="none" xmlns="http://www.w3.org/2000/svg">
<path d="M223.779 85.5287L167.927 29.7654H139.993V57.6615H112.06C101.113 92.782 86.6382 118.415 56.2803 141.277V141.379V197.229H84.112C87.7845 197.233 91.4216 196.513 94.8151 195.11C98.2085 193.707 101.292 191.649 103.888 189.054C106.484 186.458 108.542 183.377 109.944 179.985C111.347 176.594 112.066 172.959 112.06 169.29H167.927L139.993 197.229L84.112 253.007H223.779C231.185 253.003 238.286 250.061 243.521 244.827C248.757 239.593 251.698 232.496 251.698 225.097V113.483L223.779 85.5287Z" fill="#14B8A6"/>
<path d="M28.2958 1.6228H56.2799V29.7655H28.2958V57.9081H0.311768V29.7655C0.311768 14.2226 12.8408 1.6228 28.2958 1.6228Z" fill="#111827"/>
<path d="M251.697 29.7656L251.697 57.9086L223.713 57.9086L223.713 29.7656L195.73 29.7656L195.73 1.62256L223.713 1.62256C239.168 1.62256 251.697 14.2227 251.697 29.7656Z" fill="#111827"/>
<path d="M0.311768 224.865L0.311768 196.722L28.2955 196.722L28.2955 224.865L56.2792 224.865L56.2792 253.008L28.2955 253.008C12.8404 253.008 0.311768 240.408 0.311768 224.865Z" fill="#111827"/>
<path d="M433.08 129.119C433.08 113.848 443.703 106.987 454.105 106.987C464.507 106.987 475.13 113.848 475.13 129.119V195.735H504.343V128.012C504.343 94.5937 483.097 78.4377 454.105 78.4377C438.391 78.4377 426.662 83.528 418.473 93.4871C410.506 82.864 399.661 78.4377 387.71 78.4377C377.751 78.4377 367.349 83.3066 361.817 91.0527V81.5361H332.603V195.735H361.817V129.119C361.817 113.848 372.44 106.987 382.841 106.987C393.243 106.987 403.866 113.848 403.866 129.119V195.735H433.08V129.119Z" fill="#111827"/>
<path d="M589.256 121.594C571.993 122.922 549.198 124.693 537.91 130.004C521.976 137.529 516.222 147.488 516.222 164.087C516.222 185.111 531.714 197.948 557.829 197.948C575.313 197.948 584.387 191.308 589.698 182.677V195.735H618.912V130.889C618.912 99.2413 600.764 78.4377 568.009 78.4377C540.124 78.4377 523.082 93.4871 518.435 117.389H547.87C550.747 109.643 557.829 104.774 568.009 104.774C579.96 104.774 587.264 111.192 589.256 121.373V121.594ZM551.632 151.029C557.165 148.152 573.1 146.824 589.698 145.717V149.48C589.698 163.865 577.747 172.275 562.698 172.275C549.64 172.275 545.435 166.3 545.435 160.767C545.435 155.898 546.763 153.463 551.632 151.029Z" fill="#111827"/>
<path d="M664.196 40.8142H634.983V195.735H664.196V159.882L675.041 147.931L707.795 195.735H742.099L694.738 126.463L736.124 81.5361H700.713L664.196 121.373V40.8142Z" fill="#111827"/>
<path d="M847.238 128.012C847.238 94.3724 824.663 78.4377 801.425 78.4377C791.245 78.4377 779.737 83.7493 774.646 91.4953V40.8142H745.433V195.735H774.646V129.119C774.646 113.627 785.269 106.987 796.335 106.987C807.401 106.987 818.024 113.627 818.024 129.119V195.735H847.238V128.012Z" fill="#111827"/>
<path d="M965.252 128.012C965.252 94.3724 942.678 78.4377 919.44 78.4377C909.259 78.4377 897.751 83.7493 892.661 91.4953V81.5361H863.447V195.735H892.661V129.119C892.661 113.627 903.284 106.987 914.35 106.987C925.415 106.987 936.038 113.627 936.038 129.119V195.735H965.252V128.012Z" fill="#111827"/>
<path d="M977.92 145.496C977.92 177.144 996.068 197.948 1028.82 197.948C1061.58 197.948 1079.73 177.144 1079.73 145.496V130.889C1079.73 99.2413 1061.58 78.4377 1028.82 78.4377C996.068 78.4377 977.92 99.2413 977.92 130.889V145.496ZM1050.51 149.258C1050.51 162.759 1042.77 171.611 1028.82 171.611C1014.88 171.611 1007.13 162.759 1007.13 149.258V127.127C1007.13 113.627 1014.88 104.774 1028.82 104.774C1042.77 104.774 1050.51 113.627 1050.51 127.127V149.258Z" fill="#111827"/>
</svg>
