<svg width="252" height="253" viewBox="0 0 252 253" fill="none" xmlns="http://www.w3.org/2000/svg">
<path d="M224.013 84.1227L168.024 28.2231H140.023V56.1875H112.021C101.048 91.3938 86.5374 117.09 56.1053 140.008V140.11V196.096H84.005C87.6865 196.1 91.3325 195.378 94.7342 193.972C98.136 192.566 101.227 190.502 103.829 187.901C106.432 185.299 108.495 182.21 109.901 178.81C111.306 175.41 112.027 171.767 112.021 168.088H168.024L140.023 196.096L84.005 252.011H224.013C231.437 252.007 238.556 249.057 243.804 243.811C249.052 238.564 252 231.45 252 224.032V112.145L224.013 84.1227Z" fill="white"/>
<path d="M28.0525 0.0117188H56.1049V28.2232H28.0525V56.4346H0V28.2232C0 12.6423 12.5596 0.0117188 28.0525 0.0117188Z" fill="white"/>
<path d="M252 28.2233L252 56.4351L223.948 56.4351L223.948 28.2233L195.895 28.2233L195.895 0.0114722L223.948 0.0114734C239.44 0.0114741 252 12.6424 252 28.2233Z" fill="white"/>
<path d="M3.34212e-07 223.8L6.68423e-07 195.588L28.0521 195.588L28.0521 223.8L56.1042 223.8L56.1042 252.011L28.0521 252.011C12.5593 252.011 1.49633e-07 239.381 3.34212e-07 223.8Z" fill="white"/>
</svg>
