<svg width="252" height="253" viewBox="0 0 252 253" fill="none" xmlns="http://www.w3.org/2000/svg">
<path d="M224.013 85.0387L168.024 29.1392H140.023V57.1035H112.021C101.048 92.3098 86.5374 118.006 56.1053 140.924V141.026V197.012H84.005C87.6865 197.016 91.3325 196.294 94.7342 194.888C98.136 193.482 101.227 191.418 103.829 188.817C106.432 186.215 108.495 183.126 109.901 179.726C111.306 176.326 112.027 172.683 112.021 169.004H168.024L140.023 197.012L84.005 252.927H224.013C231.437 252.923 238.556 249.973 243.804 244.727C249.052 239.48 252 232.366 252 224.948V113.061L224.013 85.0387Z" fill="#111827"/>
<path d="M28.0525 0.927734H56.1049V29.1392H28.0525V57.3506H0V29.1392C0 13.5583 12.5596 0.927734 28.0525 0.927734Z" fill="#111827"/>
<path d="M252 29.1393L252 57.3511L223.948 57.3511L223.948 29.1393L195.895 29.1393L195.895 0.927488L223.948 0.927489C239.44 0.92749 252 13.5585 252 29.1393Z" fill="#111827"/>
<path d="M3.34212e-07 224.716L6.68423e-07 196.504L28.0521 196.504L28.0521 224.716L56.1042 224.716L56.1042 252.927L28.0521 252.927C12.5593 252.927 1.49633e-07 240.297 3.34212e-07 224.716Z" fill="#111827"/>
</svg>
