<svg width="507" height="508" viewBox="0 0 507 508" fill="none" xmlns="http://www.w3.org/2000/svg">
<path d="M350.84 211.585L295.253 155.294H267.453V183.454H239.652C228.757 218.907 214.351 244.783 184.138 267.861V267.964V324.343H211.837C215.492 324.347 219.112 323.62 222.489 322.203C225.867 320.787 228.935 318.71 231.519 316.09C234.103 313.47 236.151 310.359 237.547 306.935C238.942 303.512 239.658 299.843 239.652 296.139H295.253L267.453 324.343L211.837 380.648H350.84C358.21 380.645 365.278 377.674 370.488 372.391C375.699 367.108 378.626 359.944 378.626 352.474V239.804L350.84 211.585Z" fill="#14B8A6"/>
<path d="M156.286 126.886H184.137V155.295H156.286V183.704H128.435V155.295C128.435 139.605 140.905 126.886 156.286 126.886Z" fill="#111827"/>
<path d="M378.625 155.295L378.625 183.704L350.775 183.704L350.775 155.295L322.924 155.295L322.924 126.885L350.775 126.885C366.156 126.885 378.625 139.605 378.625 155.295Z" fill="#111827"/>
<path d="M128.435 352.24L128.435 323.831L156.286 323.831L156.286 352.24L184.137 352.24L184.137 380.65L156.286 380.65C140.904 380.65 128.435 367.93 128.435 352.24Z" fill="#111827"/>
</svg>
